<?xml version="1.0"?>
<svg xmlns="http://www.w3.org/2000/svg" id="Capa_1" enable-background="new 0 0 512 512" height="512px" viewBox="0 0 512 512" width="512px" class=""><g><SCRIPT xmlns="" id="allow-copy_script">(function agent() {
    let isUnlockingCached = false
    const isUnlocking = () =&gt; isUnlockingCached
    document.addEventListener('allow_copy', event =&gt; {
      const { unlock } = event.detail
      isUnlockingCached = unlock
    })

    const copyEvents = [
      'copy',
      'cut',
      'contextmenu',
      'selectstart',
      'mousedown',
      'mouseup',
      'mousemove',
      'keydown',
      'keypress',
      'keyup',
    ]
    const rejectOtherHandlers = e =&gt; {
      if (isUnlocking()) {
        e.stopPropagation()
        if (e.stopImmediatePropagation) e.stopImmediatePropagation()
      }
    }
    copyEvents.forEach(evt =&gt; {
      document.documentElement.addEventListener(evt, rejectOtherHandlers, {
        capture: true,
      })
    })
  })()</SCRIPT><g><SCRIPT xmlns="" id="allow-copy_script">(function agent() {
    let isUnlockingCached = false
    const isUnlocking = () =&gt; isUnlockingCached
    document.addEventListener('allow_copy', event =&gt; {
      const { unlock } = event.detail
      isUnlockingCached = unlock
    })

    const copyEvents = [
      'copy',
      'cut',
      'contextmenu',
      'selectstart',
      'mousedown',
      'mouseup',
      'mousemove',
      'keydown',
      'keypress',
      'keyup',
    ]
    const rejectOtherHandlers = e =&gt; {
      if (isUnlocking()) {
        e.stopPropagation()
        if (e.stopImmediatePropagation) e.stopImmediatePropagation()
      }
    }
    copyEvents.forEach(evt =&gt; {
      document.documentElement.addEventListener(evt, rejectOtherHandlers, {
        capture: true,
      })
    })
  })()</SCRIPT><path d="m86.583 372.75h-21.075v-296.13h290.992c4.143 0 7.5-3.357 7.5-7.5s-3.357-7.5-7.5-7.5h-298.492c-4.143 0-7.5 3.357-7.5 7.5v311.13c0 4.143 3.357 7.5 7.5 7.5h28.575c4.143 0 7.5-3.357 7.5-7.5s-3.357-7.5-7.5-7.5z" data-original="#15A4FA" class="active-path" data-old_color="#000000" fill="#15A4FA"/><path d="m453.992 61.62h-62.492c-4.143 0-7.5 3.357-7.5 7.5s3.357 7.5 7.5 7.5h54.992v296.13h-324.804c-4.143 0-7.5 3.357-7.5 7.5s3.357 7.5 7.5 7.5h332.305c4.143 0 7.5-3.357 7.5-7.5v-311.13c-.001-4.142-3.358-7.5-7.501-7.5z" data-original="#15A4FA" class="active-path" data-old_color="#000000" fill="#15A4FA"/><path d="m112.757 96.194c-2.93-2.928-7.678-2.928-10.607 0l-19.141 19.141c-1.406 1.407-2.196 3.314-2.196 5.304s.79 3.896 2.197 5.304l19.141 19.14c1.464 1.464 3.384 2.196 5.303 2.196s3.839-.732 5.304-2.197c2.929-2.929 2.929-7.678-.001-10.606l-13.837-13.836 13.838-13.837c2.928-2.931 2.928-7.679-.001-10.609z" data-original="#15A4FA" class="active-path" data-old_color="#000000" fill="#15A4FA"/><path d="m144.325 94.188c-4.044-.924-8.062 1.597-8.986 5.635l-8.772 38.28c-.925 4.038 1.598 8.062 5.635 8.986.564.129 1.128.191 1.683.191 3.418 0 6.508-2.353 7.304-5.826l8.772-38.28c.924-4.038-1.599-8.062-5.636-8.986z" data-original="#15A4FA" class="active-path" data-old_color="#000000" fill="#15A4FA"/><path d="m163.875 145.081c1.465 1.465 3.384 2.197 5.304 2.197 1.919 0 3.839-.732 5.303-2.196l19.141-19.14c1.407-1.407 2.197-3.314 2.197-5.304s-.79-3.896-2.196-5.304l-19.141-19.141c-2.93-2.928-7.678-2.928-10.607 0-2.929 2.93-2.929 7.678 0 10.607l13.838 13.837-13.837 13.836c-2.931 2.93-2.931 7.679-.002 10.608z" data-original="#15A4FA" class="active-path" data-old_color="#000000" fill="#15A4FA"/><path d="m88.313 189.758h40.407c4.143 0 7.5-3.357 7.5-7.5s-3.357-7.5-7.5-7.5h-40.407c-4.143 0-7.5 3.357-7.5 7.5s3.357 7.5 7.5 7.5z" data-original="#15A4FA" class="active-path" data-old_color="#000000" fill="#15A4FA"/><path d="m151.524 182.258c0 4.143 3.357 7.5 7.5 7.5h183.85c4.143 0 7.5-3.357 7.5-7.5s-3.357-7.5-7.5-7.5h-183.85c-4.142 0-7.5 3.357-7.5 7.5z" data-original="#15A4FA" class="active-path" data-old_color="#000000" fill="#15A4FA"/><path d="m373.179 189.758h10.102c4.143 0 7.5-3.357 7.5-7.5s-3.357-7.5-7.5-7.5h-10.102c-4.143 0-7.5 3.357-7.5 7.5s3.357 7.5 7.5 7.5z" data-original="#15A4FA" class="active-path" data-old_color="#000000" fill="#15A4FA"/><path d="m118.618 215.165c-4.143 0-7.5 3.357-7.5 7.5s3.357 7.5 7.5 7.5h30.305c4.143 0 7.5-3.357 7.5-7.5s-3.357-7.5-7.5-7.5z" data-original="#15A4FA" class="active-path" data-old_color="#000000" fill="#15A4FA"/><path d="m312.569 215.165h-133.341c-4.143 0-7.5 3.357-7.5 7.5s3.357 7.5 7.5 7.5h133.342c4.143 0 7.5-3.357 7.5-7.5s-3.358-7.5-7.501-7.5z" data-original="#15A4FA" class="active-path" data-old_color="#000000" fill="#15A4FA"/><path d="m363.077 215.165h-20.203c-4.143 0-7.5 3.357-7.5 7.5s3.357 7.5 7.5 7.5h20.203c4.143 0 7.5-3.357 7.5-7.5s-3.357-7.5-7.5-7.5z" data-original="#15A4FA" class="active-path" data-old_color="#000000" fill="#15A4FA"/><path d="m423.688 215.165h-30.306c-4.143 0-7.5 3.357-7.5 7.5s3.357 7.5 7.5 7.5h30.306c4.143 0 7.5-3.357 7.5-7.5s-3.358-7.5-7.5-7.5z" data-original="#15A4FA" class="active-path" data-old_color="#000000" fill="#15A4FA"/><path d="m156.423 263.071c0-4.143-3.357-7.5-7.5-7.5h-30.305c-4.143 0-7.5 3.357-7.5 7.5s3.357 7.5 7.5 7.5h30.305c4.142 0 7.5-3.357 7.5-7.5z" data-original="#15A4FA" class="active-path" data-old_color="#000000" fill="#15A4FA"/><path d="m312.569 255.571h-133.341c-4.143 0-7.5 3.357-7.5 7.5s3.357 7.5 7.5 7.5h133.342c4.143 0 7.5-3.357 7.5-7.5s-3.358-7.5-7.501-7.5z" data-original="#15A4FA" class="active-path" data-old_color="#000000" fill="#15A4FA"/><path d="m363.077 255.571h-20.203c-4.143 0-7.5 3.357-7.5 7.5s3.357 7.5 7.5 7.5h20.203c4.143 0 7.5-3.357 7.5-7.5s-3.357-7.5-7.5-7.5z" data-original="#15A4FA" class="active-path" data-old_color="#000000" fill="#15A4FA"/><path d="m423.688 255.571h-30.306c-4.143 0-7.5 3.357-7.5 7.5s3.357 7.5 7.5 7.5h30.306c4.143 0 7.5-3.357 7.5-7.5s-3.358-7.5-7.5-7.5z" data-original="#15A4FA" class="active-path" data-old_color="#000000" fill="#15A4FA"/><path d="m88.313 310.978h40.407c4.143 0 7.5-3.357 7.5-7.5s-3.357-7.5-7.5-7.5h-40.407c-4.143 0-7.5 3.357-7.5 7.5s3.357 7.5 7.5 7.5z" data-original="#15A4FA" class="active-path" data-old_color="#000000" fill="#15A4FA"/><path d="m350.374 303.478c0-4.143-3.357-7.5-7.5-7.5h-183.85c-4.143 0-7.5 3.357-7.5 7.5s3.357 7.5 7.5 7.5h183.85c4.143 0 7.5-3.358 7.5-7.5z" data-original="#15A4FA" class="active-path" data-old_color="#000000" fill="#15A4FA"/><path d="m383.28 310.978c4.143 0 7.5-3.357 7.5-7.5s-3.357-7.5-7.5-7.5h-10.102c-4.143 0-7.5 3.357-7.5 7.5s3.357 7.5 7.5 7.5z" data-original="#15A4FA" class="active-path" data-old_color="#000000" fill="#15A4FA"/><path d="m148.923 351.384c4.143 0 7.5-3.357 7.5-7.5s-3.357-7.5-7.5-7.5h-30.305c-4.143 0-7.5 3.357-7.5 7.5s3.357 7.5 7.5 7.5z" data-original="#15A4FA" class="active-path" data-old_color="#000000" fill="#15A4FA"/><path d="m179.228 336.384c-4.143 0-7.5 3.357-7.5 7.5s3.357 7.5 7.5 7.5h133.342c4.143 0 7.5-3.357 7.5-7.5s-3.357-7.5-7.5-7.5z" data-original="#15A4FA" class="active-path" data-old_color="#000000" fill="#15A4FA"/><path d="m342.874 351.384h20.203c4.143 0 7.5-3.357 7.5-7.5s-3.357-7.5-7.5-7.5h-20.203c-4.143 0-7.5 3.357-7.5 7.5s3.357 7.5 7.5 7.5z" data-original="#15A4FA" class="active-path" data-old_color="#000000" fill="#15A4FA"/><path d="m393.382 351.384h30.306c4.143 0 7.5-3.357 7.5-7.5s-3.357-7.5-7.5-7.5h-30.306c-4.143 0-7.5 3.357-7.5 7.5s3.357 7.5 7.5 7.5z" data-original="#15A4FA" class="active-path" data-old_color="#000000" fill="#15A4FA"/><path d="m504.5 403.055h-12.703v-344.24c0-15.164-12.337-27.5-27.5-27.5h-416.594c-15.163 0-27.5 12.336-27.5 27.5v344.239h-12.703c-4.143 0-7.5 3.357-7.5 7.5v22.224c0 26.416 21.49 47.906 47.906 47.906h278.805c4.143 0 7.5-3.357 7.5-7.5s-3.357-7.5-7.5-7.5h-278.805c-18.144.001-32.906-14.761-32.906-32.906v-14.724h482v14.724c0 18.145-14.762 32.906-32.906 32.906h-102.688c-4.143 0-7.5 3.357-7.5 7.5s3.357 7.5 7.5 7.5h102.688c26.416 0 47.906-21.49 47.906-47.906v-22.224c0-4.142-3.357-7.499-7.5-7.499zm-469.297-344.24c0-6.893 5.607-12.5 12.5-12.5h416.594c6.893 0 12.5 5.607 12.5 12.5v344.239h-441.594z" data-original="#15A4FA" class="active-path" data-old_color="#000000" fill="#15A4FA"/></g></g> </svg>
